<?xml version="1.0" encoding="UTF-8"?>
<svg id="Layer_1" xmlns="http://www.w3.org/2000/svg" version="1.1" xmlns:xlink="http://www.w3.org/1999/xlink" viewBox="0 0 850 850">
  <!-- Generator: Adobe Illustrator 30.2.1, SVG Export Plug-In . SVG Version: 2.1.1 Build 1)  -->
  <defs>
    <style>
      .st0 {
        fill: #231f20;
      }

      .st1 {
        fill: url(#linear-gradient);
      }
    </style>
    <linearGradient id="linear-gradient" x1="188.95" y1="425" x2="588.25" y2="425" gradientUnits="userSpaceOnUse">
      <stop offset="0" stop-color="#1c689d"/>
      <stop offset="1" stop-color="#b8ddb5"/>
    </linearGradient>
  </defs>
  <rect class="st0" width="850" height="850"/>
  <path class="st1" d="M587.93,420.83c-2.23-71.32-15.91-136.97-37.33-190.27l17.17-34.1-.29-101.76-67.32,49.56c-21.93-25.29-46.75-41.59-72.99-46.25-2.91-.52-5.83-.9-8.76-1.12l-4.81.15,5.92,189.16-157.98,313.82-53.82-27.14-18.76,37.29,77.02,38.84-35.71,70.93-2.75-1.39,9.63,32.3,31.65-11.47,35.71-70.94,74.27,37.45,18.77-37.28-53.82-27.14,81.81-162.51,8.64,276.34c1.59-.14,3.16-.32,4.72-.54,2.72-.38,5.41-.88,8.08-1.51.22-.05.45-.11.68-.17,84.07-20.45,145.57-162.37,140.26-332.25ZM477.85,170.33l-45.58,90.54-4.68-149.53c18.3,12.39,35.32,32.62,50.26,58.99ZM447.25,739.75l-8.95-286.12,82.94-164.76c9.23,40.67,15.07,85.85,16.57,133.53,4.62,147.33-33.66,273.38-90.56,317.35ZM546.78,183.16l-9.23,18.33-25.76,51.17-75.11,149.2-12.75,25.33-103.22,205.02-19.03-9.59,120.85-240.06,12.75-25.33,67.05-133.17,22.76-45.21,22.88-45.46-1.19,49.77Z"/>
</svg>